<svg xmlns="http://www.w3.org/2000/svg" width="111.241" height="123.321" viewBox="0 0 111.241 123.321">
  <g id="icon-3" transform="translate(-3735.442 -1809.978)">
    <path id="Path_126" data-name="Path 126" d="M3825.133,1822.663c-24.49,0-41.307-12.685-53.107-12.685s-36.584,6.783-36.584,61.069,33.341,62.252,46.32,62.252C3842.541,1933.3,3868.5,1822.663,3825.133,1822.663Z" fill="#ff2c2c" opacity="0.2"/>
    <path id="Path_127" data-name="Path 127" d="M3791.063,1911.468s32.749-8.851,32.749-40.081V1844.2l-32.749-12.392-32.75,12.392v27.187C3758.313,1902.617,3791.063,1911.468,3791.063,1911.468Z" fill="#f3f3f1"/>
    <path id="Path_128" data-name="Path 128" d="M3778.671,1883.145a7.966,7.966,0,0,1,0-15.932h.142a12.377,12.377,0,0,1,23.455-3.505,9.727,9.727,0,0,1-.584,19.437Z" fill="#ff2c2c"/>
    <path id="Path_129" data-name="Path 129" d="M3778.671,1875.179a7.955,7.955,0,0,1,7.966-7.966h.142a12.326,12.326,0,0,1,8.281-9.938,12.316,12.316,0,0,0-16.247,9.938h-.142a7.966,7.966,0,0,0,0,15.932h7.966a7.955,7.955,0,0,1-7.966-7.966Z" fill="#ff2c2c"/>
    <path id="Path_130" data-name="Path 130" d="M3766.28,1871.387V1844.2l28.766-10.884-3.983-1.508-32.75,12.392v27.187c0,31.23,32.75,40.081,32.75,40.081s1.582-.449,3.983-1.412C3786.347,1906.561,3766.28,1895.866,3766.28,1871.387Z" fill="#d5dbe1"/>
    <path id="Path_131" data-name="Path 131" d="M3791.063,1914.124a2.71,2.71,0,0,1-.694-.092c-.347-.092-34.711-9.761-34.711-42.645V1844.2a2.661,2.661,0,0,1,1.714-2.486l32.749-12.391a2.679,2.679,0,0,1,1.88,0l32.749,12.391a2.659,2.659,0,0,1,1.717,2.486v27.187c0,32.884-34.363,42.553-34.71,42.645a2.721,2.721,0,0,1-.694.092Zm-30.094-68.09v25.353c0,26.436,25.565,35.847,30.1,37.313,4.713-1.473,30.084-10.636,30.084-37.313v-25.353l-30.094-11.387Z"/>
    <path id="Path_132" data-name="Path 132" d="M3801.684,1885.8h-23.013a10.623,10.623,0,0,1-2.039-21.048,15.037,15.037,0,0,1,27.329-3.512,12.385,12.385,0,0,1-2.277,24.56Zm-10.621-26.553a9.746,9.746,0,0,0-9.62,8.334,2.658,2.658,0,0,1-2.63,2.287,5.311,5.311,0,1,0-.142,10.621h23.013a7.072,7.072,0,0,0,.439-14.13,2.657,2.657,0,0,1-2.259-1.529,9.735,9.735,0,0,0-8.8-5.583Z"/>
  </g>
</svg>
