<svg xmlns="http://www.w3.org/2000/svg" width="111.241" height="123.325" viewBox="0 0 111.241 123.325">
  <g id="icon-5" transform="translate(-3100.162 -2012.775)">
    <path id="Path_133" data-name="Path 133" d="M3121.713,2123.415c24.489,0,41.306,12.685,53.107,12.685s36.583-6.783,36.583-61.069-33.34-62.256-46.32-62.256c-60.779,0-86.741,110.64-43.37,110.64Z" fill="#ff2c2c" opacity="0.2"/>
    <path id="Path_134" data-name="Path 134" d="M3143.391,2085.946a7.966,7.966,0,0,1,0-15.932h.141a12.378,12.378,0,0,1,23.456-3.5,9.727,9.727,0,0,1-.584,19.437Z" fill="#ff2c2c"/>
    <path id="Path_135" data-name="Path 135" d="M3143.391,2077.98a7.955,7.955,0,0,1,7.966-7.966h.142a12.326,12.326,0,0,1,8.281-9.938,12.321,12.321,0,0,0-16.248,9.938h-.141a7.966,7.966,0,0,0,0,15.932h7.966a7.955,7.955,0,0,1-7.966-7.966Z" fill="#ff2c2c"/>
    <path id="Path_136" data-name="Path 136" d="M3166.4,2088.6h-23.013a10.623,10.623,0,0,1-2.039-21.048,15.036,15.036,0,0,1,27.328-3.512,12.385,12.385,0,0,1-2.276,24.56Zm-10.622-26.553a9.745,9.745,0,0,0-9.619,8.334,2.658,2.658,0,0,1-2.631,2.287,5.312,5.312,0,1,0-.141,10.622H3166.4a7.072,7.072,0,0,0,.439-14.13,2.658,2.658,0,0,1-2.259-1.53,9.737,9.737,0,0,0-8.8-5.583Z"/>
    <path id="Path_137" data-name="Path 137" d="M3120.587,2116.953l-.209-18.587a2.653,2.653,0,0,1,2.655-2.684h18.588v5.311h-15.9l.177,15.9Z"/>
    <path id="Path_138" data-name="Path 138" d="M3188.532,2053.2h-18.588v-5.311h15.932v-15.932h5.311v18.587A2.657,2.657,0,0,1,3188.532,2053.2Z"/>
    <path id="Path_139" data-name="Path 139" d="M3115.11,2086.711a42.479,42.479,0,0,1,40.672-54.757,42,42,0,0,1,33.206,16.059l-4.174,3.286a36.712,36.712,0,0,0-29.032-14.034,37.173,37.173,0,0,0-35.588,47.916Z"/>
    <path id="Path_140" data-name="Path 140" d="M3155.782,2116.925a42,42,0,0,1-33.206-16.059l4.175-3.286a36.712,36.712,0,0,0,29.031,14.034,37.174,37.174,0,0,0,35.589-47.916l5.088-1.533a42.493,42.493,0,0,1-40.677,54.76Z"/>
  </g>
</svg>
