<svg xmlns="http://www.w3.org/2000/svg" width="111.241" height="123.321" viewBox="0 0 111.241 123.321">
  <g id="icon-1" transform="translate(-2461.595 -1803.576)">
    <path id="Path_96" data-name="Path 96" d="M2483.146,1816.261c24.489,0,41.306-12.685,53.107-12.685s36.583,6.783,36.583,61.069-33.34,62.252-46.32,62.252c-60.779,0-86.741-110.636-43.37-110.636Z" fill="#ff2c2c" opacity="0.2"/>
    <path id="Path_97" data-name="Path 97" d="M2477.385,1884.709h33.635v-4.426a5.312,5.312,0,0,0-5.311-5.31H2482.7a5.313,5.313,0,0,0-5.311,5.31Z" fill="#ff2c2c"/>
    <path id="Path_98" data-name="Path 98" d="M2482.7,1905.067h23.013a5.313,5.313,0,0,0,5.311-5.311v-15.047h-33.635v15.047A5.314,5.314,0,0,0,2482.7,1905.067Z" fill="#f3f3f1"/>
    <path id="Path_99" data-name="Path 99" d="M2523.411,1884.709h33.635v-4.426a5.312,5.312,0,0,0-5.311-5.31h-23.013a5.313,5.313,0,0,0-5.311,5.31Z" fill="#ff2c2c"/>
    <path id="Path_100" data-name="Path 100" d="M2528.722,1905.067h23.013a5.313,5.313,0,0,0,5.311-5.311v-15.047h-33.635v15.047A5.314,5.314,0,0,0,2528.722,1905.067Z" fill="#f3f3f1"/>
    <path id="Path_101" data-name="Path 101" d="M2504.824,1851.96a7.966,7.966,0,1,1,0-15.932h.142a12.376,12.376,0,0,1,23.455-3.505,9.727,9.727,0,0,1-.584,19.437Z" fill="#ff2c2c"/>
    <path id="Path_102" data-name="Path 102" d="M2490.662,1874.973H2482.7a5.313,5.313,0,0,0-5.311,5.31v4.426h7.966v-4.426A5.313,5.313,0,0,1,2490.662,1874.973Z" fill="#ff2c2c"/>
    <path id="Path_103" data-name="Path 103" d="M2536.688,1874.973h-7.966a5.313,5.313,0,0,0-5.311,5.31v4.426h7.966v-4.426A5.313,5.313,0,0,1,2536.688,1874.973Z" fill="#ff2c2c"/>
    <path id="Path_104" data-name="Path 104" d="M2504.824,1843.994a7.955,7.955,0,0,1,7.966-7.966h.142a12.327,12.327,0,0,1,8.281-9.938,12.316,12.316,0,0,0-16.247,9.938h-.142a7.966,7.966,0,1,0,0,15.932h7.966a7.955,7.955,0,0,1-7.966-7.966Z" fill="#ff2c2c"/>
    <path id="Path_105" data-name="Path 105" d="M2485.351,1899.756v-15.047h-7.966v15.047a5.314,5.314,0,0,0,5.311,5.311h7.966A5.314,5.314,0,0,1,2485.351,1899.756Z" fill="#d5dbe1"/>
    <path id="Path_106" data-name="Path 106" d="M2531.377,1899.756v-15.047h-7.966v15.047a5.314,5.314,0,0,0,5.311,5.311h7.966A5.314,5.314,0,0,1,2531.377,1899.756Z" fill="#d5dbe1"/>
    <path id="Path_107" data-name="Path 107" d="M2527.837,1854.615h-23.013a10.623,10.623,0,0,1-2.036-21.048,15.037,15.037,0,0,1,27.329-3.512,12.385,12.385,0,0,1-2.28,24.56Zm-10.621-26.553a9.757,9.757,0,0,0-9.623,8.337,2.652,2.652,0,0,1-2.627,2.284,5.311,5.311,0,1,0-.142,10.621h23.013a7.072,7.072,0,0,0,.439-14.13,2.671,2.671,0,0,1-2.262-1.529A9.727,9.727,0,0,0,2517.216,1828.062Z"/>
    <path id="Path_108" data-name="Path 108" d="M2505.709,1907.722H2482.7a7.976,7.976,0,0,1-7.966-7.966v-19.473a7.976,7.976,0,0,1,7.966-7.966h23.013a7.976,7.976,0,0,1,7.966,7.966v19.473A7.976,7.976,0,0,1,2505.709,1907.722Zm-23.013-30.094a2.658,2.658,0,0,0-2.655,2.655v19.473a2.658,2.658,0,0,0,2.655,2.655h23.013a2.658,2.658,0,0,0,2.655-2.655v-19.473a2.659,2.659,0,0,0-2.655-2.655Z"/>
    <path id="Path_109" data-name="Path 109" d="M2477.385,1882.886h33.635v5.31h-33.635Z"/>
    <path id="Path_110" data-name="Path 110" d="M2551.735,1907.722h-23.013a7.976,7.976,0,0,1-7.966-7.966v-19.473a7.976,7.976,0,0,1,7.966-7.966h23.013a7.976,7.976,0,0,1,7.966,7.966v19.473A7.976,7.976,0,0,1,2551.735,1907.722Zm-23.013-30.094a2.659,2.659,0,0,0-2.655,2.655v19.473a2.658,2.658,0,0,0,2.655,2.655h23.013a2.658,2.658,0,0,0,2.655-2.655v-19.473a2.658,2.658,0,0,0-2.655-2.655Z"/>
    <path id="Path_111" data-name="Path 111" d="M2523.411,1882.886h33.635v5.31h-33.635Z"/>
    <path id="Path_112" data-name="Path 112" d="M2542.884,1874.973h-5.311v-7.081a.885.885,0,0,0-.885-.885h-38.945a.885.885,0,0,0-.885.885v7.081h-5.311v-7.081a6.2,6.2,0,0,1,6.2-6.2h38.945a6.2,6.2,0,0,1,6.2,6.2Z"/>
    <path id="Path_113" data-name="Path 113" d="M2514.56,1852.845h5.311v11.506h-5.311Z"/>
  </g>
</svg>
