<svg xmlns="http://www.w3.org/2000/svg" width="123.325" height="111.242" viewBox="0 0 123.325 111.242">
  <g id="icon-6" transform="translate(-3721.22 -2019.838)">
    <path id="Path_74" data-name="Path 74" d="M3831.859,2109.529c0-24.489,12.686-41.307,12.686-53.107s-6.784-36.584-61.069-36.584-62.256,33.341-62.256,46.32C3721.22,2126.937,3831.859,2152.9,3831.859,2109.529Z" fill="#ff2c2c" opacity="0.2"/>
    <path id="Path_75" data-name="Path 75" d="M3753.675,2110.864v-4.426a7.079,7.079,0,0,1,7.081-7.081h8.852a7.078,7.078,0,0,1,7.08,7.081v4.426Z" fill="#ff2c2c"/>
    <path id="Path_76" data-name="Path 76" d="M3789.08,2110.864v-4.426a7.079,7.079,0,0,1,7.081-7.081h8.851a7.079,7.079,0,0,1,7.081,7.081v4.426Z" fill="#ff2c2c"/>
    <path id="Path_77" data-name="Path 77" d="M3758.639,2086.966a15.4,15.4,0,1,1,0-30.8h.276a24.294,24.294,0,0,1,45.892-6.777,18.8,18.8,0,0,1-1.14,37.579Z" fill="#f3f3f1"/>
    <path id="Path_78" data-name="Path 78" d="M3771.378,2117.945v-7.966a7.078,7.078,0,0,1,7.081-7.081h8.851a7.079,7.079,0,0,1,7.081,7.081v7.966Z" fill="#f3f3f1"/>
    <path id="Path_79" data-name="Path 79" d="M3768.722,2099.357h-7.966a7.079,7.079,0,0,0-7.081,7.081v4.426h7.967v-4.426A7.078,7.078,0,0,1,3768.722,2099.357Z" fill="#ff2c2c"/>
    <path id="Path_80" data-name="Path 80" d="M3804.127,2099.357h-7.966c-3.912,0-7.081.514-7.081,4.426l7.966,7.081v-4.426A7.079,7.079,0,0,1,3804.127,2099.357Z" fill="#ff2c2c"/>
    <path id="Path_81" data-name="Path 81" d="M3751.02,2071.565a15.473,15.473,0,0,1,15.585-15.4h.276a24.008,24.008,0,0,1,19.958-20.192,24.138,24.138,0,0,0-27.924,20.192h-.276a15.4,15.4,0,1,0,0,30.8h7.966A15.473,15.473,0,0,1,3751.02,2071.565Z" fill="#d5dbe1"/>
    <path id="Path_82" data-name="Path 82" d="M3786.425,2102.9h-7.966a7.078,7.078,0,0,0-7.081,7.081v7.966h7.966v-7.966A7.079,7.079,0,0,1,3786.425,2102.9Z" fill="#d5dbe1"/>
    <circle id="Ellipse_7" data-name="Ellipse 7" cx="7.081" cy="7.081" r="7.081" transform="translate(3775.803 2082.54)"/>
    <path id="Path_83" data-name="Path 83" d="M3797.046,2117.945h-5.311v-7.966a4.432,4.432,0,0,0-4.425-4.426h-8.851a4.432,4.432,0,0,0-4.426,4.426v7.966h-5.311v-7.966a9.745,9.745,0,0,1,9.737-9.737h8.851a9.745,9.745,0,0,1,9.736,9.737Z"/>
    <circle id="Ellipse_8" data-name="Ellipse 8" cx="7.081" cy="7.081" r="7.081" transform="translate(3758.101 2079)"/>
    <path id="Path_84" data-name="Path 84" d="M3756.331,2110.864h-5.311v-4.426a9.744,9.744,0,0,1,9.736-9.736h4.426v5.311h-4.426a4.431,4.431,0,0,0-4.425,4.425Z"/>
    <circle id="Ellipse_9" data-name="Ellipse 9" cx="7.081" cy="7.081" r="7.081" transform="translate(3793.506 2079)"/>
    <path id="Path_85" data-name="Path 85" d="M3814.748,2110.864h-5.31v-4.426a4.432,4.432,0,0,0-4.426-4.425h-4.425V2096.7h4.425a9.744,9.744,0,0,1,9.736,9.736Z"/>
    <path id="Path_86" data-name="Path 86" d="M3748.45,2086.555a18.017,18.017,0,0,1,8.245-32.944,26.965,26.965,0,0,1,49.808-6.723,21.373,21.373,0,0,1,11.311,37.532l-3.444-4.043a16.073,16.073,0,0,0-9.715-28.324,2.655,2.655,0,0,1-2.263-1.522,21.625,21.625,0,0,0-40.846,6.008,2.657,2.657,0,0,1-2.631,2.28,12.916,12.916,0,0,0-13.206,12.746,12.7,12.7,0,0,0,5.686,10.571Z"/>
  </g>
</svg>
