<svg xmlns="http://www.w3.org/2000/svg" width="123.322" height="111.241" viewBox="0 0 123.322 111.241">
  <g id="icon-4" transform="translate(-2460.024 -2028.672)">
    <path id="Path_114" data-name="Path 114" d="M2472.71,2050.223c0,24.489-12.686,41.306-12.686,53.106s6.784,36.584,61.07,36.584,62.252-33.341,62.252-46.32c0-60.779-110.636-86.741-110.636-43.371Z" fill="#ff2c2c" opacity="0.2"/>
    <path id="Path_115" data-name="Path 115" d="M2508.982,2095.8a7.967,7.967,0,1,1,0-15.932h.145a12.636,12.636,0,0,1,23.841-3.5,9.724,9.724,0,0,1-.594,19.437Z" fill="#ff2c2c"/>
    <path id="Path_116" data-name="Path 116" d="M2508.851,2087.833a8.02,8.02,0,0,1,8.1-7.966h.145a12.39,12.39,0,0,1,8.494-9.96,12.728,12.728,0,0,0-4.008-.662,12.494,12.494,0,0,0-12.452,10.622h-.145a7.967,7.967,0,1,0,0,15.932h7.966a8.02,8.02,0,0,1-8.1-7.966Z" fill="#ff2c2c"/>
    <path id="Path_117" data-name="Path 117" d="M2532.374,2098.454h-23.389a10.611,10.611,0,0,1-2.028-21.051,15.318,15.318,0,0,1,27.69-3.516,12.374,12.374,0,0,1-2.273,24.567Zm-10.795-26.553a9.888,9.888,0,0,0-9.825,8.341,2.653,2.653,0,0,1-2.627,2.28,5.315,5.315,0,1,0-.142,10.622h23.389a7.069,7.069,0,0,0,.449-14.13,2.66,2.66,0,0,1-2.255-1.516,9.951,9.951,0,0,0-8.989-5.6Z"/>
    <circle id="Ellipse_11" data-name="Ellipse 11" cx="5.311" cy="5.311" r="5.311" transform="translate(2516.374 2041.807)"/>
    <circle id="Ellipse_12" data-name="Ellipse 12" cx="5.311" cy="5.311" r="5.311" transform="translate(2479.199 2078.982)"/>
    <circle id="Ellipse_13" data-name="Ellipse 13" cx="5.311" cy="5.311" r="5.311" transform="translate(2553.549 2078.982)"/>
    <circle id="Ellipse_14" data-name="Ellipse 14" cx="5.31" cy="5.31" r="5.31" transform="translate(2542.649 2052.698)"/>
    <circle id="Ellipse_15" data-name="Ellipse 15" cx="5.31" cy="5.31" r="5.31" transform="translate(2490.073 2105.267)"/>
    <circle id="Ellipse_16" data-name="Ellipse 16" cx="5.31" cy="5.31" r="5.31" transform="translate(2490.077 2052.695)"/>
    <circle id="Ellipse_17" data-name="Ellipse 17" cx="5.31" cy="5.31" r="5.31" transform="translate(2542.645 2105.271)"/>
    <path id="Path_118" data-name="Path 118" d="M2519.03,2050.658h5.31v17.7h-5.31Z"/>
    <path id="Path_119" data-name="Path 119" d="M2519.03,2096.684h5.31v21.243h-5.31Z"/>
    <path id="Path_120" data-name="Path 120" d="M2488.051,2081.637h13.276v5.311h-13.276Z"/>
    <path id="Path_121" data-name="Path 121" d="M2543.165,2081.527h12.6v5.311h-12.6Z"/>
    <path id="Path_122" data-name="Path 122" d="M2496.007,2062.375l3.754-3.755,13.344,13.344-3.754,3.755Z"/>
    <path id="Path_123" data-name="Path 123" d="M2532.074,2098.456l3.755-3.754,11.5,11.5-3.755,3.754Z"/>
    <path id="Path_124" data-name="Path 124" d="M2496,2106.205l11.4-11.4,3.755,3.754-11.4,11.4Z"/>
    <path id="Path_125" data-name="Path 125" d="M2530.238,2071.975l13.344-13.344,3.755,3.754-13.344,13.344Z"/>
  </g>
</svg>
