<svg xmlns="http://www.w3.org/2000/svg" width="123.321" height="111.241" viewBox="0 0 123.321 111.241">
  <g id="icon-2" transform="translate(-3094.122 -1814.635)">
    <path id="Path_87" data-name="Path 87" d="M3106.807,1904.325c0-24.489-12.685-41.306-12.685-53.107s6.783-36.583,61.069-36.583,62.252,33.34,62.252,46.32C3217.447,1921.734,3106.807,1947.7,3106.807,1904.325Z" fill="#ff2c2c" opacity="0.2"/>
    <circle id="Ellipse_10" data-name="Ellipse 10" cx="29.209" cy="29.209" r="29.209" transform="translate(3126.574 1841.047)" fill="#ff2c2c"/>
    <path id="Path_88" data-name="Path 88" d="M3134.54,1870.256a29.188,29.188,0,0,1,25.226-28.905,29.209,29.209,0,1,0,0,57.809A29.188,29.188,0,0,1,3134.54,1870.256Z" fill="#ff2c2c"/>
    <path id="Path_89" data-name="Path 89" d="M3155.825,1912.741v-.018h-.078a42.084,42.084,0,0,1-7.286-.609l-2.617-.453.91-5.233,2.613.454a37.735,37.735,0,0,0,6.416.548h2.655l.039,5.308Zm12.031-1.653-1.824-4.989,2.5-.91a36.658,36.658,0,0,0,5.86-2.744l2.294-1.331,2.666,4.592-2.3,1.331a41.9,41.9,0,0,1-6.705,3.137Zm-30.972-2.68-2.3-1.328a43.113,43.113,0,0,1-6.065-4.242l-2.036-1.7,3.41-4.075,2.035,1.7a37.242,37.242,0,0,0,5.311,3.714l2.3,1.328Zm49.754-8.82-4.068-3.409,1.7-2.036a37.464,37.464,0,0,0,3.721-5.311l1.331-2.3,4.595,2.658-1.327,2.3a43.336,43.336,0,0,1-4.245,6.058Zm-66.285-5.728-1.331-2.294a42.493,42.493,0,0,1-3.144-6.7l-.913-2.492,4.985-1.827.913,2.5a37.475,37.475,0,0,0,2.747,5.86l1.335,2.294Zm76.818-13.617-5.233-.92.46-2.617a37.184,37.184,0,0,0,.559-6.45V1867.6l5.315-.17-.007,2.988a41.854,41.854,0,0,1-.638,7.212ZM3113.3,1873v-2.656h2.655l-2.655-.007a43.052,43.052,0,0,1,.616-7.357l.449-2.616,5.237.9-.45,2.617a37.735,37.735,0,0,0-.545,6.38v2.655Zm78.29-13.11-.921-2.493a37.1,37.1,0,0,0-2.758-5.852l-1.342-2.291,4.589-2.68,1.338,2.291a42.679,42.679,0,0,1,3.162,6.7l.917,2.492Zm-69.379-5.839-4.606-2.644,1.324-2.3a42.259,42.259,0,0,1,4.238-6.072l1.706-2.039,4.072,3.406-1.7,2.036a37.466,37.466,0,0,0-3.707,5.31Zm59.4-10.657-2.036-1.7a37.455,37.455,0,0,0-5.314-3.7l-2.3-1.321,2.642-4.606,2.3,1.324a42.67,42.67,0,0,1,6.075,4.231l2.04,1.7Zm-46.795-3.951-2.673-4.588,2.291-1.335a42.645,42.645,0,0,1,6.7-3.151l2.489-.917,1.837,4.985-2.492.914a37.175,37.175,0,0,0-5.853,2.758Zm29.921-5.371-2.617-.449a37.308,37.308,0,0,0-6.333-.538h-2.656l-.127-5.311h2.783a43.25,43.25,0,0,1,7.233.612l2.616.45Z"/>
    <path id="Path_90" data-name="Path 90" d="M3155.783,1902.12a31.865,31.865,0,1,1,31.864-31.864A31.9,31.9,0,0,1,3155.783,1902.12Zm0-58.418a26.553,26.553,0,1,0,26.553,26.554A26.581,26.581,0,0,0,3155.783,1843.7Z"/>
    <path id="Path_91" data-name="Path 91" d="M3155.783,1859.634a37.626,37.626,0,0,1-22.858-7.311l3.229-4.213a34.112,34.112,0,0,0,39.257,0l3.229,4.213a37.625,37.625,0,0,1-22.857,7.311Z"/>
    <path id="Path_92" data-name="Path 92" d="M3175.411,1892.4a34.112,34.112,0,0,0-39.257,0l-3.229-4.213a39.387,39.387,0,0,1,45.715,0Z"/>
    <path id="Path_93" data-name="Path 93" d="M3155.783,1902.12c-9.928,0-17.7-14-17.7-31.864s7.775-31.865,17.7-31.865,17.7,14,17.7,31.865S3165.71,1902.12,3155.783,1902.12Zm0-58.418c-5.86,0-12.392,10.905-12.392,26.554s6.532,26.553,12.392,26.553,12.391-10.9,12.391-26.553S3161.642,1843.7,3155.783,1843.7Z"/>
    <path id="Path_94" data-name="Path 94" d="M3128.344,1867.6h54.877v5.311h-54.877Z"/>
    <path id="Path_95" data-name="Path 95" d="M3153.127,1842.817h5.311v54.877h-5.311Z"/>
  </g>
</svg>
